<svg width="300" height="70" viewBox="0 0 428 118" fill="none" xmlns="http://www.w3.org/2000/svg">
<g filter="url(#filter0_d_629_2938)">
<rect x="7" y="7" width="414" height="104" rx="4.10526" fill="#F9F9F9"/>
<rect x="7.68421" y="7.68421" width="412.632" height="102.632" rx="3.42105" stroke="#D3D3D3" stroke-width="1.36842"/>
</g>
<path d="M333.746 77.5108C333.559 77.4796 333.356 77.464 333.138 77.464C332.327 77.464 331.777 77.8093 331.487 78.4997V83.6313H330.251V76.4016H331.454L331.474 77.2369C331.879 76.591 332.454 76.268 333.198 76.268C333.438 76.268 333.621 76.2992 333.746 76.3616V77.5108Z" fill="#555555"/>
<path d="M337.755 83.7649C336.775 83.7649 335.977 83.4442 335.363 82.8028C334.748 82.1569 334.441 81.2949 334.441 80.2169V79.9897C334.441 79.2726 334.576 78.6334 334.848 78.0721C335.124 77.5064 335.507 77.0654 335.997 76.7491C336.492 76.4284 337.026 76.268 337.601 76.268C338.541 76.268 339.271 76.5776 339.793 77.1968C340.314 77.816 340.574 78.7024 340.574 79.8561V80.3706H335.677C335.695 81.0833 335.902 81.6602 336.298 82.1012C336.699 82.5377 337.207 82.756 337.822 82.756C338.258 82.756 338.628 82.6669 338.931 82.4887C339.234 82.3105 339.499 82.0745 339.726 81.7805L340.481 82.3684C339.875 83.2994 338.966 83.7649 337.755 83.7649ZM337.601 77.2836C337.102 77.2836 336.683 77.4663 336.345 77.8315C336.006 78.1924 335.797 78.7002 335.717 79.355H339.338V79.2614C339.303 78.6334 339.133 78.1478 338.83 77.8048C338.528 77.4574 338.118 77.2836 337.601 77.2836Z" fill="#555555"/>
<path d="M349.361 80.5443C349.241 81.5733 348.86 82.3684 348.218 82.9297C347.581 83.4865 346.733 83.7649 345.673 83.7649C344.523 83.7649 343.601 83.3529 342.906 82.5288C342.216 81.7047 341.871 80.6022 341.871 79.2213V78.2859C341.871 77.3816 342.031 76.5865 342.352 75.9005C342.677 75.2145 343.136 74.6889 343.728 74.3236C344.321 73.9539 345.007 73.769 345.786 73.769C346.82 73.769 347.648 74.0586 348.272 74.6377C348.895 75.2123 349.258 76.0097 349.361 77.0297H348.071C347.96 76.2547 347.717 75.6934 347.343 75.3459C346.973 74.9985 346.454 74.8248 345.786 74.8248C344.967 74.8248 344.323 75.1277 343.855 75.7335C343.392 76.3393 343.16 77.2012 343.16 78.3193V79.2614C343.16 80.3172 343.381 81.1568 343.822 81.7805C344.263 82.4041 344.88 82.7159 345.673 82.7159C346.385 82.7159 346.931 82.5555 347.31 82.2348C347.693 81.9096 347.947 81.3461 348.071 80.5443H349.361Z" fill="#555555"/>
<path d="M356.49 81.0922H352.414L351.499 83.6313H350.176L353.891 73.9027H355.014L358.735 83.6313H357.419L356.49 81.0922ZM352.802 80.0365H356.109L354.452 75.4863L352.802 80.0365Z" fill="#555555"/>
<path d="M361.328 79.8227V83.6313H360.045V73.9027H363.633C364.698 73.9027 365.531 74.1744 366.132 74.7179C366.738 75.2613 367.041 75.9807 367.041 76.8761C367.041 77.8204 366.745 78.5487 366.152 79.061C365.564 79.5688 364.72 79.8227 363.62 79.8227H361.328ZM361.328 78.7737H363.633C364.319 78.7737 364.845 78.6133 365.21 78.2926C365.575 77.9674 365.758 77.4997 365.758 76.8894C365.758 76.3103 365.575 75.8471 365.21 75.4996C364.845 75.1522 364.344 74.9718 363.707 74.9584H361.328V78.7737Z" fill="#555555"/>
<path d="M375.4 74.9584H372.273V83.6313H370.996V74.9584H367.876V73.9027H375.4V74.9584Z" fill="#555555"/>
<path d="M383.812 80.5443C383.692 81.5733 383.311 82.3684 382.669 82.9297C382.032 83.4865 381.184 83.7649 380.124 83.7649C378.974 83.7649 378.052 83.3529 377.357 82.5288C376.667 81.7047 376.322 80.6022 376.322 79.2213V78.2859C376.322 77.3816 376.482 76.5865 376.803 75.9005C377.128 75.2145 377.587 74.6889 378.179 74.3236C378.772 73.9539 379.458 73.769 380.237 73.769C381.271 73.769 382.099 74.0586 382.723 74.6377C383.346 75.2123 383.71 76.0097 383.812 77.0297H382.522C382.411 76.2547 382.168 75.6934 381.794 75.3459C381.424 74.9985 380.905 74.8248 380.237 74.8248C379.418 74.8248 378.774 75.1277 378.306 75.7335C377.843 76.3393 377.611 77.2012 377.611 78.3193V79.2614C377.611 80.3172 377.832 81.1568 378.273 81.7805C378.714 82.4041 379.331 82.7159 380.124 82.7159C380.836 82.7159 381.382 82.5555 381.761 82.2348C382.144 81.9096 382.398 81.3461 382.522 80.5443H383.812Z" fill="#555555"/>
<path d="M393.046 83.6313H391.757V79.1345H386.852V83.6313H385.569V73.9027H386.852V78.0854H391.757V73.9027H393.046V83.6313Z" fill="#555555"/>
<path d="M400.817 81.0922H396.741L395.826 83.6313H394.503L398.218 73.9027H399.34L403.062 83.6313H401.746L400.817 81.0922ZM397.129 80.0365H400.436L398.779 75.4863L397.129 80.0365Z" fill="#555555"/>
<path d="M328.974 95.3163V98.3632H327.947V90.5803H330.818C331.669 90.5803 332.336 90.7977 332.817 91.2324C333.302 91.6672 333.544 92.2427 333.544 92.959C333.544 93.7145 333.307 94.2971 332.833 94.707C332.363 95.1132 331.687 95.3163 330.807 95.3163H328.974ZM328.974 94.4771H330.818C331.367 94.4771 331.787 94.3488 332.079 94.0922C332.371 93.8321 332.518 93.4579 332.518 92.9697C332.518 92.5064 332.371 92.1358 332.079 91.8579C331.787 91.5799 331.386 91.4356 330.877 91.4249H328.974V94.4771Z" fill="#555555"/>
<path d="M337.494 93.4668C337.344 93.4419 337.182 93.4294 337.008 93.4294C336.359 93.4294 335.919 93.7056 335.687 94.2579V98.3632H334.698V92.5795H335.661L335.677 93.2477C336.001 92.7309 336.461 92.4726 337.056 92.4726C337.248 92.4726 337.394 92.4975 337.494 92.5474V93.4668Z" fill="#555555"/>
<path d="M339.483 98.3632H338.494V92.5795H339.483V98.3632ZM338.414 91.0454C338.414 90.885 338.462 90.7496 338.558 90.6391C338.658 90.5286 338.804 90.4734 338.996 90.4734C339.189 90.4734 339.335 90.5286 339.435 90.6391C339.534 90.7496 339.584 90.885 339.584 91.0454C339.584 91.2057 339.534 91.3394 339.435 91.4463C339.335 91.5532 339.189 91.6066 338.996 91.6066C338.804 91.6066 338.658 91.5532 338.558 91.4463C338.462 91.3394 338.414 91.2057 338.414 91.0454Z" fill="#555555"/>
<path d="M342.979 97.0215L344.411 92.5795H345.421L343.347 98.3632H342.594L340.498 92.5795H341.509L342.979 97.0215Z" fill="#555555"/>
<path d="M349.858 98.3632C349.801 98.2492 349.755 98.046 349.719 97.7538C349.259 98.2314 348.711 98.4701 348.073 98.4701C347.503 98.4701 347.034 98.3098 346.667 97.989C346.303 97.6647 346.122 97.2549 346.122 96.7596C346.122 96.1573 346.35 95.6905 346.806 95.3591C347.266 95.0241 347.911 94.8566 348.741 94.8566H349.703V94.4023C349.703 94.0566 349.6 93.7822 349.393 93.5791C349.186 93.3724 348.882 93.269 348.479 93.269C348.126 93.269 347.83 93.3581 347.592 93.5363C347.353 93.7145 347.233 93.9301 347.233 94.1831H346.239C346.239 93.8945 346.341 93.6165 346.544 93.3492C346.751 93.0784 347.029 92.8646 347.378 92.7078C347.731 92.551 348.117 92.4726 348.538 92.4726C349.204 92.4726 349.726 92.6401 350.104 92.975C350.482 93.3065 350.678 93.7644 350.692 94.3488V97.0108C350.692 97.5418 350.76 97.9641 350.895 98.2777V98.3632H349.858ZM348.217 97.6095C348.527 97.6095 348.821 97.5293 349.099 97.369C349.377 97.2086 349.578 97.0001 349.703 96.7435V95.5569H348.928C347.716 95.5569 347.111 95.9115 347.111 96.6206C347.111 96.9306 347.214 97.173 347.421 97.3476C347.627 97.5222 347.893 97.6095 348.217 97.6095Z" fill="#555555"/>
<path d="M354.562 97.663C354.915 97.663 355.223 97.556 355.487 97.3422C355.75 97.1284 355.897 96.8611 355.925 96.5404H356.861C356.843 96.8718 356.729 97.1872 356.518 97.4866C356.308 97.7859 356.027 98.0247 355.674 98.2028C355.325 98.381 354.954 98.4701 354.562 98.4701C353.774 98.4701 353.147 98.2082 352.68 97.6843C352.217 97.1569 351.986 96.4371 351.986 95.5248V95.3591C351.986 94.796 352.089 94.2954 352.296 93.857C352.502 93.4187 352.798 93.0784 353.183 92.8361C353.571 92.5937 354.029 92.4726 354.557 92.4726C355.205 92.4726 355.743 92.6668 356.171 93.0552C356.602 93.4437 356.832 93.9479 356.861 94.568H355.925C355.897 94.1938 355.754 93.8873 355.497 93.6486C355.244 93.4062 354.931 93.2851 354.557 93.2851C354.054 93.2851 353.664 93.4668 353.386 93.8303C353.112 94.1902 352.974 94.7123 352.974 95.3965V95.5836C352.974 96.25 353.112 96.7631 353.386 97.1231C353.66 97.483 354.052 97.663 354.562 97.663Z" fill="#555555"/>
<path d="M359.865 96.9146L361.212 92.5795H362.27L359.945 99.2559C359.585 100.218 359.013 100.699 358.229 100.699L358.042 100.683L357.673 100.614V99.8118L357.94 99.8332C358.275 99.8332 358.535 99.7655 358.721 99.6301C358.91 99.4946 359.065 99.247 359.186 98.8871L359.405 98.2991L357.342 92.5795H358.421L359.865 96.9146Z" fill="#555555"/>
<path d="M379.851 91.4249H377.349V98.3632H376.328V91.4249H373.832V90.5803H379.851V91.4249Z" fill="#555555"/>
<path d="M382.716 98.4701C381.932 98.4701 381.294 98.2135 380.803 97.7004C380.311 97.1837 380.065 96.4941 380.065 95.6317V95.45C380.065 94.8762 380.174 94.3648 380.391 93.9158C380.612 93.4633 380.918 93.1105 381.31 92.8574C381.706 92.6009 382.134 92.4726 382.593 92.4726C383.345 92.4726 383.93 92.7202 384.347 93.2156C384.763 93.7109 384.972 94.4201 384.972 95.3431V95.7547H381.054C381.068 96.3248 381.234 96.7863 381.551 97.1391C381.872 97.4883 382.278 97.663 382.77 97.663C383.119 97.663 383.415 97.5917 383.657 97.4491C383.899 97.3066 384.111 97.1177 384.293 96.8825L384.897 97.3529C384.412 98.0977 383.685 98.4701 382.716 98.4701ZM382.593 93.2851C382.194 93.2851 381.859 93.4312 381.588 93.7234C381.317 94.0121 381.15 94.4183 381.086 94.9422H383.983V94.8673C383.955 94.3648 383.819 93.9764 383.577 93.702C383.334 93.4241 383.007 93.2851 382.593 93.2851Z" fill="#555555"/>
<path d="M388.917 93.4668C388.767 93.4419 388.605 93.4294 388.43 93.4294C387.782 93.4294 387.342 93.7056 387.11 94.2579V98.3632H386.121V92.5795H387.083L387.099 93.2477C387.424 92.7309 387.883 92.4726 388.479 92.4726C388.671 92.4726 388.817 92.4975 388.917 92.5474V93.4668Z" fill="#555555"/>
<path d="M390.761 92.5795L390.788 93.2209C391.212 92.722 391.784 92.4726 392.504 92.4726C393.313 92.4726 393.863 92.7826 394.155 93.4027C394.348 93.1247 394.597 92.9002 394.904 92.7292C395.214 92.5581 395.579 92.4726 395.999 92.4726C397.268 92.4726 397.913 93.1443 397.935 94.4878V98.3632H396.946V94.5466C396.946 94.1332 396.851 93.825 396.662 93.6218C396.473 93.4152 396.156 93.3118 395.711 93.3118C395.344 93.3118 395.039 93.4223 394.797 93.6432C394.554 93.8606 394.414 94.1546 394.374 94.5252V98.3632H393.38V94.5733C393.38 93.7323 392.969 93.3118 392.145 93.3118C391.497 93.3118 391.053 93.588 390.814 94.1403V98.3632H389.826V92.5795H390.761Z" fill="#555555"/>
<path d="M402.799 96.8291C402.799 96.5618 402.697 96.3551 402.494 96.209C402.295 96.0593 401.944 95.931 401.441 95.8241C400.942 95.7172 400.545 95.5889 400.249 95.4393C399.957 95.2896 399.739 95.1114 399.597 94.9047C399.458 94.698 399.388 94.4522 399.388 94.1671C399.388 93.6931 399.588 93.2922 399.987 92.9644C400.39 92.6365 400.903 92.4726 401.527 92.4726C402.182 92.4726 402.713 92.6419 403.12 92.9804C403.529 93.3189 403.734 93.7519 403.734 94.2793H402.74C402.74 94.0085 402.624 93.7751 402.393 93.5791C402.165 93.3831 401.876 93.2851 401.527 93.2851C401.167 93.2851 400.885 93.3635 400.682 93.5203C400.479 93.6771 400.377 93.882 400.377 94.135C400.377 94.3738 400.472 94.5537 400.661 94.6749C400.85 94.796 401.19 94.9119 401.682 95.0223C402.177 95.1328 402.578 95.2647 402.884 95.4179C403.191 95.5711 403.417 95.7564 403.563 95.9738C403.713 96.1876 403.788 96.4496 403.788 96.7596C403.788 97.2763 403.581 97.6915 403.168 98.0051C402.754 98.3151 402.218 98.4701 401.559 98.4701C401.095 98.4701 400.686 98.3881 400.329 98.2242C399.973 98.0603 399.693 97.8322 399.49 97.54C399.29 97.2442 399.191 96.9253 399.191 96.5832H400.18C400.197 96.9146 400.329 97.1783 400.575 97.3743C400.825 97.5667 401.152 97.663 401.559 97.663C401.933 97.663 402.232 97.5881 402.457 97.4385C402.685 97.2852 402.799 97.0821 402.799 96.8291Z" fill="#555555"/>
<path d="M369.449 95.8988H366.643V94.8511H369.449V95.8988Z" fill="black"/>
<g filter="url(#filter1_d_629_2938)">
<path d="M381.864 32.0937C381.679 31.8628 381.488 31.6357 381.291 31.4125C378.151 27.8464 373.818 25.5474 369.105 24.9463C364.391 24.3451 359.62 25.4831 355.686 28.1469L361.319 36.4675C363.229 35.1742 365.545 34.6218 367.834 34.9136C370.122 35.2055 372.226 36.3216 373.75 38.053C374.092 38.441 374.399 38.854 374.671 39.2873L369.684 44.2736H386.255V27.7029L381.864 32.0937Z" fill="#1C3AA9"/>
</g>
<g filter="url(#filter2_d_629_2938)">
<path d="M366.59 24.7898H350.019L354.359 29.1302C351.116 31.7513 348.785 35.3532 347.731 39.4178C346.538 44.0174 347.063 48.894 349.208 53.1342L358.174 48.599C357.133 46.5404 356.878 44.1728 357.457 41.9397C358.036 39.7066 359.409 37.7612 361.32 36.4679C361.395 36.4169 361.471 36.3671 361.548 36.3184L366.59 41.3604V24.7898Z" fill="#4285F4"/>
</g>
<g filter="url(#filter3_d_629_2938)">
<path d="M347.105 44.4556H363.676L358.67 49.4621C359.731 51.1064 361.281 52.3893 363.113 53.1223C365.255 53.9792 367.636 54.0258 369.81 53.2533C371.984 52.4809 373.801 50.9424 374.922 48.9262L382.17 56.1552C379.884 59.1546 376.765 61.4455 373.174 62.7214C368.697 64.3125 363.793 64.2165 359.381 62.4516C356.278 61.2101 353.568 59.2026 351.487 56.6451L347.105 61.0263V44.4556Z" fill="#ABABAB"/>
</g>
<path d="M83.0343 64.4736H81.2383V50.8536H83.0343V64.4736Z" fill="black"/>
<path d="M86.1774 54.6889L85.1952 54.0154C85.7752 53.2047 86.0745 52.3503 86.0932 51.4523V50.1052H87.8051V51.3213C87.7989 51.9449 87.643 52.5686 87.3374 53.1922C87.038 53.8096 86.6514 54.3085 86.1774 54.6889Z" fill="black"/>
<path d="M91.3317 54.3521L91.3785 55.4747C92.1206 54.6016 93.1215 54.1651 94.3813 54.1651C95.7969 54.1651 96.7604 54.7076 97.2718 55.7927C97.6086 55.3063 98.0451 54.9134 98.5814 54.6141C99.124 54.3147 99.7632 54.1651 100.499 54.1651C102.719 54.1651 103.848 55.3406 103.885 57.6917V64.4736H102.155V57.7946C102.155 57.0712 101.99 56.5317 101.659 56.1763C101.329 55.8146 100.773 55.6337 99.9939 55.6337C99.3516 55.6337 98.8184 55.827 98.3943 56.2137C97.9703 56.5941 97.7239 57.1086 97.6553 57.7572V64.4736H95.9154V57.8413C95.9154 56.3696 95.1951 55.6337 93.7545 55.6337C92.6195 55.6337 91.8431 56.117 91.4253 57.0836V64.4736H89.6947V54.3521H91.3317Z" fill="black"/>
<path d="M112.894 54.3521L112.95 55.6243C113.723 54.6515 114.733 54.1651 115.981 54.1651C118.12 54.1651 119.199 55.3718 119.217 57.7852V64.4736H117.487V57.7759C117.481 57.0462 117.312 56.5068 116.982 56.1575C116.657 55.8083 116.149 55.6337 115.457 55.6337C114.896 55.6337 114.403 55.7834 113.979 56.0827C113.555 56.3821 113.224 56.7749 112.987 57.2614V64.4736H111.257V54.3521H112.894Z" fill="black"/>
<path d="M121.369 59.3193C121.369 58.3278 121.562 57.436 121.949 56.644C122.342 55.852 122.884 55.2408 123.576 54.8105C124.275 54.3802 125.07 54.1651 125.962 54.1651C127.34 54.1651 128.453 54.6421 129.301 55.5963C130.156 56.5504 130.583 57.8195 130.583 59.4035V59.5251C130.583 60.5105 130.393 61.396 130.012 62.1818C129.638 62.9613 129.099 63.5694 128.394 64.0059C127.696 64.4425 126.891 64.6607 125.981 64.6607C124.609 64.6607 123.495 64.1837 122.641 63.2295C121.793 62.2754 121.369 61.0125 121.369 59.441V59.3193ZM123.109 59.5251C123.109 60.6477 123.368 61.5488 123.885 62.2286C124.409 62.9083 125.107 63.2482 125.981 63.2482C126.86 63.2482 127.558 62.9052 128.076 62.2192C128.594 61.527 128.852 60.5604 128.852 59.3193C128.852 58.2093 128.587 57.3113 128.057 56.6253C127.533 55.933 126.835 55.5869 125.962 55.5869C125.107 55.5869 124.418 55.9268 123.895 56.6066C123.371 57.2863 123.109 58.2592 123.109 59.5251Z" fill="black"/>
<path d="M135.101 51.9013V54.3521H136.991V55.6898H135.101V61.9667C135.101 62.372 135.185 62.6776 135.354 62.8834C135.522 63.083 135.809 63.1827 136.214 63.1827C136.414 63.1827 136.688 63.1453 137.038 63.0705V64.4736C136.582 64.5984 136.139 64.6607 135.709 64.6607C134.936 64.6607 134.353 64.4269 133.96 63.9592C133.567 63.4914 133.371 62.8273 133.371 61.9667V55.6898H131.528V54.3521H133.371V51.9013H135.101Z" fill="black"/>
<path d="M150.021 64.4736C149.922 64.2741 149.841 63.9186 149.778 63.4072C148.974 64.2429 148.013 64.6607 146.897 64.6607C145.899 64.6607 145.079 64.3801 144.437 63.8188C143.801 63.2513 143.483 62.5342 143.483 61.6673C143.483 60.6134 143.882 59.7964 144.68 59.2165C145.485 58.6302 146.613 58.3371 148.066 58.3371H149.75V57.542C149.75 56.9371 149.569 56.4569 149.208 56.1014C148.846 55.7397 148.313 55.5589 147.608 55.5589C146.991 55.5589 146.473 55.7148 146.055 56.0266C145.637 56.3384 145.428 56.7157 145.428 57.1585H143.689C143.689 56.6533 143.866 56.1669 144.222 55.6992C144.583 55.2252 145.07 54.851 145.681 54.5766C146.298 54.3023 146.975 54.1651 147.711 54.1651C148.877 54.1651 149.791 54.4582 150.452 55.0444C151.113 55.6243 151.456 56.4257 151.481 57.4485V62.107C151.481 63.0362 151.599 63.7752 151.836 64.324V64.4736H150.021ZM147.15 63.1547C147.692 63.1547 148.207 63.0144 148.693 62.7337C149.18 62.4531 149.532 62.0883 149.75 61.6393V59.5626H148.394C146.273 59.5626 145.213 60.1831 145.213 61.4241C145.213 61.9667 145.394 62.3907 145.756 62.6963C146.118 63.0019 146.582 63.1547 147.15 63.1547Z" fill="black"/>
<path d="M163.838 55.905C163.576 55.8613 163.292 55.8395 162.987 55.8395C161.852 55.8395 161.082 56.3228 160.676 57.2894V64.4736H158.946V54.3521H160.629L160.657 55.5214C161.225 54.6172 162.029 54.1651 163.071 54.1651C163.408 54.1651 163.663 54.2087 163.838 54.296V55.905Z" fill="black"/>
<path d="M164.792 59.3193C164.792 58.3278 164.985 57.436 165.372 56.644C165.765 55.852 166.308 55.2408 167 54.8105C167.698 54.3802 168.493 54.1651 169.385 54.1651C170.763 54.1651 171.877 54.6421 172.725 55.5963C173.579 56.5504 174.006 57.8195 174.006 59.4035V59.5251C174.006 60.5105 173.816 61.396 173.436 62.1818C173.061 62.9613 172.522 63.5694 171.817 64.0059C171.119 64.4425 170.314 64.6607 169.404 64.6607C168.032 64.6607 166.919 64.1837 166.064 63.2295C165.216 62.2754 164.792 61.0125 164.792 59.441V59.3193ZM166.532 59.5251C166.532 60.6477 166.791 61.5488 167.308 62.2286C167.832 62.9083 168.531 63.2482 169.404 63.2482C170.283 63.2482 170.982 62.9052 171.499 62.2192C172.017 61.527 172.276 60.5604 172.276 59.3193C172.276 58.2093 172.011 57.3113 171.481 56.6253C170.957 55.933 170.258 55.5869 169.385 55.5869C168.531 55.5869 167.842 55.9268 167.318 56.6066C166.794 57.2863 166.532 58.2592 166.532 59.5251Z" fill="black"/>
<path d="M184.745 59.5251C184.745 61.0717 184.39 62.3159 183.679 63.2576C182.968 64.193 182.014 64.6607 180.816 64.6607C179.538 64.6607 178.549 64.2086 177.851 63.3043L177.767 64.4736H176.177V50.1052H177.907V55.4653C178.606 54.5985 179.569 54.1651 180.798 54.1651C182.026 54.1651 182.99 54.6297 183.688 55.5589C184.393 56.4881 184.745 57.7603 184.745 59.3755V59.5251ZM183.015 59.3287C183.015 58.15 182.787 57.2395 182.332 56.5972C181.876 55.9549 181.222 55.6337 180.367 55.6337C179.226 55.6337 178.406 56.1638 177.907 57.224V61.6018C178.437 62.662 179.263 63.1921 180.386 63.1921C181.215 63.1921 181.861 62.8709 182.322 62.2286C182.784 61.5862 183.015 60.6196 183.015 59.3287Z" fill="black"/>
<path d="M186.476 59.3193C186.476 58.3278 186.669 57.436 187.056 56.644C187.449 55.852 187.991 55.2408 188.683 54.8105C189.382 54.3802 190.177 54.1651 191.069 54.1651C192.447 54.1651 193.56 54.6421 194.408 55.5963C195.263 56.5504 195.69 57.8195 195.69 59.4035V59.5251C195.69 60.5105 195.5 61.396 195.119 62.1818C194.745 62.9613 194.206 63.5694 193.501 64.0059C192.802 64.4425 191.998 64.6607 191.087 64.6607C189.715 64.6607 188.602 64.1837 187.748 63.2295C186.9 62.2754 186.476 61.0125 186.476 59.441V59.3193ZM188.216 59.5251C188.216 60.6477 188.474 61.5488 188.992 62.2286C189.516 62.9083 190.214 63.2482 191.087 63.2482C191.967 63.2482 192.665 62.9052 193.183 62.2192C193.7 61.527 193.959 60.5604 193.959 59.3193C193.959 58.2093 193.694 57.3113 193.164 56.6253C192.64 55.933 191.942 55.5869 191.069 55.5869C190.214 55.5869 189.525 55.9268 189.001 56.6066C188.478 57.2863 188.216 58.2592 188.216 59.5251Z" fill="black"/>
<path d="M200.208 51.9013V54.3521H202.098V55.6898H200.208V61.9667C200.208 62.372 200.292 62.6776 200.461 62.8834C200.629 63.083 200.916 63.1827 201.321 63.1827C201.521 63.1827 201.795 63.1453 202.144 63.0705V64.4736C201.689 64.5984 201.246 64.6607 200.816 64.6607C200.043 64.6607 199.46 64.4269 199.067 63.9592C198.674 63.4914 198.477 62.8273 198.477 61.9667V55.6898H196.635V54.3521H198.477V51.9013H200.208Z" fill="black"/>
<path fill-rule="evenodd" clip-rule="evenodd" d="M60.2666 41.2105H27.6273C27.5713 41.2105 27.5259 41.2559 27.5259 41.3118V73.9512C27.5259 74.0072 27.5713 74.0526 27.6273 74.0526H60.2666C60.3226 74.0526 60.368 74.0072 60.368 73.9512V41.3118C60.368 41.2559 60.3226 41.2105 60.2666 41.2105ZM60.2666 38.4736H27.6273C26.0598 38.4736 24.7891 39.7443 24.7891 41.3118V73.9512C24.7891 75.5187 26.0598 76.7894 27.6273 76.7894H60.2666C61.8341 76.7894 63.1049 75.5187 63.1049 73.9512V41.3118C63.1049 39.7443 61.8341 38.4736 60.2666 38.4736Z" fill="#B2B2B2"/>
<g filter="url(#filter4_i_629_2938)">
<rect x="27.5254" y="41.2104" width="32.8421" height="32.8421" fill="white"/>
</g>
<defs>
<filter id="filter0_d_629_2938" x="0.157895" y="0.157895" width="427.684" height="117.684" filterUnits="userSpaceOnUse" color-interpolation-filters="sRGB">
<feFlood flood-opacity="0" result="BackgroundImageFix"/>
<feColorMatrix in="SourceAlpha" type="matrix" values="0 0 0 0 0 0 0 0 0 0 0 0 0 0 0 0 0 0 127 0" result="hardAlpha"/>
<feMorphology radius="1.36842" operator="dilate" in="SourceAlpha" result="effect1_dropShadow_629_2938"/>
<feOffset/>
<feGaussianBlur stdDeviation="2.73684"/>
<feColorMatrix type="matrix" values="0 0 0 0 0 0 0 0 0 0 0 0 0 0 0 0 0 0 0.08 0"/>
<feBlend mode="normal" in2="BackgroundImageFix" result="effect1_dropShadow_629_2938"/>
<feBlend mode="normal" in="SourceGraphic" in2="effect1_dropShadow_629_2938" result="shape"/>
</filter>
<filter id="filter1_d_629_2938" x="354.317" y="23.4209" width="33.3072" height="22.2212" filterUnits="userSpaceOnUse" color-interpolation-filters="sRGB">
<feFlood flood-opacity="0" result="BackgroundImageFix"/>
<feColorMatrix in="SourceAlpha" type="matrix" values="0 0 0 0 0 0 0 0 0 0 0 0 0 0 0 0 0 0 127 0" result="hardAlpha"/>
<feOffset/>
<feGaussianBlur stdDeviation="0.684211"/>
<feColorMatrix type="matrix" values="0 0 0 0 0 0 0 0 0 0 0 0 0 0 0 0 0 0 0.38 0"/>
<feBlend mode="normal" in2="BackgroundImageFix" result="effect1_dropShadow_629_2938"/>
<feBlend mode="normal" in="SourceGraphic" in2="effect1_dropShadow_629_2938" result="shape"/>
</filter>
<filter id="filter2_d_629_2938" x="345.737" y="23.4214" width="22.2212" height="31.0813" filterUnits="userSpaceOnUse" color-interpolation-filters="sRGB">
<feFlood flood-opacity="0" result="BackgroundImageFix"/>
<feColorMatrix in="SourceAlpha" type="matrix" values="0 0 0 0 0 0 0 0 0 0 0 0 0 0 0 0 0 0 127 0" result="hardAlpha"/>
<feOffset/>
<feGaussianBlur stdDeviation="0.684211"/>
<feColorMatrix type="matrix" values="0 0 0 0 0 0 0 0 0 0 0 0 0 0 0 0 0 0 0.38 0"/>
<feBlend mode="normal" in2="BackgroundImageFix" result="effect1_dropShadow_629_2938"/>
<feBlend mode="normal" in="SourceGraphic" in2="effect1_dropShadow_629_2938" result="shape"/>
</filter>
<filter id="filter3_d_629_2938" x="345.737" y="43.0871" width="37.8013" height="22.1299" filterUnits="userSpaceOnUse" color-interpolation-filters="sRGB">
<feFlood flood-opacity="0" result="BackgroundImageFix"/>
<feColorMatrix in="SourceAlpha" type="matrix" values="0 0 0 0 0 0 0 0 0 0 0 0 0 0 0 0 0 0 127 0" result="hardAlpha"/>
<feOffset/>
<feGaussianBlur stdDeviation="0.684211"/>
<feColorMatrix type="matrix" values="0 0 0 0 0 0 0 0 0 0 0 0 0 0 0 0 0 0 0.38 0"/>
<feBlend mode="normal" in2="BackgroundImageFix" result="effect1_dropShadow_629_2938"/>
<feBlend mode="normal" in="SourceGraphic" in2="effect1_dropShadow_629_2938" result="shape"/>
</filter>
<filter id="filter4_i_629_2938" x="27.5254" y="41.2104" width="32.8418" height="34.2105" filterUnits="userSpaceOnUse" color-interpolation-filters="sRGB">
<feFlood flood-opacity="0" result="BackgroundImageFix"/>
<feBlend mode="normal" in="SourceGraphic" in2="BackgroundImageFix" result="shape"/>
<feColorMatrix in="SourceAlpha" type="matrix" values="0 0 0 0 0 0 0 0 0 0 0 0 0 0 0 0 0 0 127 0" result="hardAlpha"/>
<feOffset dy="1.36842"/>
<feGaussianBlur stdDeviation="0.684211"/>
<feComposite in2="hardAlpha" operator="arithmetic" k2="-1" k3="1"/>
<feColorMatrix type="matrix" values="0 0 0 0 0 0 0 0 0 0 0 0 0 0 0 0 0 0 0.1 0"/>
<feBlend mode="normal" in2="shape" result="effect1_innerShadow_629_2938"/>
</filter>
</defs>
</svg>
